<svg width="58" height="17" viewBox="0 0 58 17" fill="none" xmlns="http://www.w3.org/2000/svg">
<g id="Shapes" clip-path="url(#clip0_29_314)">
<g id="_x31_10">
<path id="Vector" d="M21.4547 12.5406L25.2485 16.3309C25.6774 16.7584 26.2571 16.9979 26.8626 16.9979H35.0419C36.3026 16.9979 37.323 15.9786 37.323 14.7237V6.56909C37.323 5.96541 37.0828 5.38548 36.654 4.95994L32.8522 1.17754C32.3281 0.656991 31.4347 1.02712 31.4347 1.76341V5.49236C31.4347 6.03864 30.7716 6.31376 30.3825 5.92582L24.8197 0.381872C24.3095 -0.126802 23.4816 -0.126802 22.9714 0.381872L20.6566 2.69169C20.1464 3.20036 20.1464 4.02572 20.6566 4.53439L26.2193 10.0803C26.6065 10.4663 26.3325 11.1293 25.7846 11.1293H22.0443C21.3038 11.1293 20.9325 12.02 21.4567 12.5425L21.4547 12.5406Z" fill="#18181A"/>
<path id="Vector_2" d="M1.18322 12.5407L4.97709 16.331C5.40591 16.7585 5.98562 16.998 6.59113 16.998H14.7705C16.0311 16.998 17.0516 15.9787 17.0516 14.7238V6.56918C17.0516 5.9655 16.8114 5.38557 16.3825 4.96003L12.5807 1.17763C12.0566 0.657082 11.1632 1.02721 11.1632 1.7635V5.49245C11.1632 6.03873 10.5001 6.31385 10.111 5.92591L4.54827 0.381963C4.03806 -0.126711 3.21019 -0.126711 2.69998 0.381963L0.383151 2.69178C-0.127066 3.20045 -0.127066 4.02581 0.383151 4.53448L5.94591 10.0804C6.33304 10.4664 6.05907 11.1294 5.51113 11.1294H1.77086C1.03035 11.1294 0.659105 12.0201 1.18322 12.5426V12.5407Z" fill="#18181A"/>
<path id="Vector_3" d="M41.7277 12.5407L45.5215 16.331C45.9503 16.7585 46.5301 16.998 47.1356 16.998H55.3149C56.5756 16.998 57.596 15.9787 57.596 14.7238V6.56921C57.596 5.96553 57.3558 5.3856 56.927 4.96006L53.1252 1.17766C52.601 0.657113 51.7077 1.02724 51.7077 1.76353V5.49248C51.7077 6.03876 51.0446 6.31388 50.6555 5.92595L45.0927 0.381994C44.5825 -0.12668 43.7546 -0.12668 43.2444 0.381994L40.9276 2.69181C40.4174 3.20048 40.4174 4.02584 40.9276 4.53451L46.4903 10.0804C46.8775 10.4664 46.6035 11.1295 46.0556 11.1295H42.3153C41.5748 11.1295 41.2035 12.0201 41.7277 12.5427V12.5407Z" fill="#18181A"/>
</g>
</g>
<defs>
<clipPath id="clip0_29_314">
<rect width="58" height="17" fill="white"/>
</clipPath>
</defs>
</svg>
