<svg width="14" height="16" viewBox="0 0 14 16" fill="none" xmlns="http://www.w3.org/2000/svg">
<path d="M13.125 6.49219C11.8945 6.51953 10.7461 6.13672 9.76172 5.42578V10.3203C9.76172 13.7383 6.04297 15.8711 3.08984 14.1758C0.136719 12.4531 0.136719 8.1875 3.08984 6.46484C3.9375 5.97266 4.94922 5.78125 5.93359 5.91797V8.37891C4.42969 7.88672 2.98047 9.22656 3.30859 10.7578C3.66406 12.2891 5.52344 12.8906 6.69922 11.8242C7.10938 11.4414 7.35547 10.8945 7.35547 10.3203V0.75H9.76172C9.76172 0.96875 9.76172 1.16016 9.81641 1.37891C9.98047 2.28125 10.5 3.07422 11.293 3.56641C11.8125 3.92188 12.4688 4.11328 13.125 4.11328V6.49219Z" fill="black"/>
</svg>
