<svg width="30" height="27" viewBox="0 0 30 27" fill="none" xmlns="http://www.w3.org/2000/svg">
<g filter="url(#filter0_d_177_560)">
<mask id="path-1-outside-1_177_560" maskUnits="userSpaceOnUse" x="-2" y="-2" width="31" height="28" fill="black">
<rect fill="white" x="-2" y="-2" width="31" height="28"/>
<path d="M6.04688 3C6 2.0625 6 1.07812 6 0H21C21 1.07812 20.9531 2.0625 20.9062 3H25.875H27V4.125C27 10.4531 23.6719 13.875 20.3906 15.7031C18.7969 16.5469 17.1562 17.0625 15.9844 17.3438C15.7031 17.3906 15.4219 17.4375 15.2344 17.4844C15.1406 17.5312 15.0469 17.5781 14.9531 17.5781V21H18.3281H19.4531V22.125V22.875V24H18.375H8.625H7.5V22.875V22.125V21H8.625H12V17.5781C11.9062 17.5781 11.8125 17.5312 11.7188 17.4844C11.5312 17.4375 11.25 17.3906 10.9688 17.2969C9.79688 17.0625 8.15625 16.5469 6.5625 15.6562C3.28125 13.875 0 10.4531 0 4.125V3H1.125H6.04688ZM6.23438 5.25H2.25C2.625 9.84375 5.10938 12.3281 7.64062 13.6875C7.96875 13.875 8.34375 14.0625 8.67188 14.2031C7.59375 12.3281 6.65625 9.51562 6.23438 5.25ZM18.2812 14.2031C18.6562 14.0625 18.9844 13.875 19.3125 13.6875C21.8438 12.3281 24.3281 9.84375 24.7031 5.25H20.7188C20.2969 9.51562 19.3594 12.3281 18.2812 14.2031Z"/>
</mask>
<path d="M6.04688 3C6 2.0625 6 1.07812 6 0H21C21 1.07812 20.9531 2.0625 20.9062 3H25.875H27V4.125C27 10.4531 23.6719 13.875 20.3906 15.7031C18.7969 16.5469 17.1562 17.0625 15.9844 17.3438C15.7031 17.3906 15.4219 17.4375 15.2344 17.4844C15.1406 17.5312 15.0469 17.5781 14.9531 17.5781V21H18.3281H19.4531V22.125V22.875V24H18.375H8.625H7.5V22.875V22.125V21H8.625H12V17.5781C11.9062 17.5781 11.8125 17.5312 11.7188 17.4844C11.5312 17.4375 11.25 17.3906 10.9688 17.2969C9.79688 17.0625 8.15625 16.5469 6.5625 15.6562C3.28125 13.875 0 10.4531 0 4.125V3H1.125H6.04688ZM6.23438 5.25H2.25C2.625 9.84375 5.10938 12.3281 7.64062 13.6875C7.96875 13.875 8.34375 14.0625 8.67188 14.2031C7.59375 12.3281 6.65625 9.51562 6.23438 5.25ZM18.2812 14.2031C18.6562 14.0625 18.9844 13.875 19.3125 13.6875C21.8438 12.3281 24.3281 9.84375 24.7031 5.25H20.7188C20.2969 9.51562 19.3594 12.3281 18.2812 14.2031Z" fill="#FFC62E"/>
<path d="M6.04688 3V5H8.14937L8.04438 2.90012L6.04688 3ZM6 0V-2H4V0H6ZM21 0H23V-2H21V0ZM20.9062 3L18.9087 2.90012L18.8038 5H20.9062V3ZM27 3H29V1H27V3ZM20.3906 15.7031L21.3264 17.4707L21.3453 17.4607L21.364 17.4503L20.3906 15.7031ZM15.9844 17.3438L16.3132 19.3165L16.3826 19.305L16.4511 19.2885L15.9844 17.3438ZM15.2344 17.4844L14.7493 15.5441L14.5363 15.5973L14.3399 15.6955L15.2344 17.4844ZM14.9531 17.5781V15.5781H12.9531V17.5781H14.9531ZM14.9531 21H12.9531V23H14.9531V21ZM19.4531 21H21.4531V19H19.4531V21ZM19.4531 24V26H21.4531V24H19.4531ZM7.5 24H5.5V26H7.5V24ZM7.5 21V19H5.5V21H7.5ZM12 21V23H14V21H12ZM12 17.5781H14V15.5781H12V17.5781ZM11.7188 17.4844L12.6132 15.6955L12.4168 15.5973L12.2038 15.5441L11.7188 17.4844ZM10.9688 17.2969L11.6012 15.3995L11.4831 15.3601L11.361 15.3357L10.9688 17.2969ZM6.5625 15.6562L7.53814 13.9104L7.52745 13.9044L7.51668 13.8985L6.5625 15.6562ZM0 3V1H-2V3H0ZM6.23438 5.25L8.22466 5.05316L8.04633 3.25H6.23438V5.25ZM2.25 5.25V3.25H0.0800819L0.256631 5.41272L2.25 5.25ZM7.64062 13.6875L8.6329 11.951L8.61006 11.938L8.58688 11.9255L7.64062 13.6875ZM8.67188 14.2031L7.88404 16.0414L13.3937 18.4027L10.4057 13.2062L8.67188 14.2031ZM18.2812 14.2031L16.5474 13.2062L13.7742 18.0293L18.9835 16.0758L18.2812 14.2031ZM19.3125 13.6875L18.3662 11.9255L18.3431 11.938L18.3202 11.951L19.3125 13.6875ZM24.7031 5.25L26.6965 5.41272L26.873 3.25H24.7031V5.25ZM20.7188 5.25V3.25H18.9068L18.7285 5.05316L20.7188 5.25ZM8.04438 2.90012C8.00046 2.02179 8 1.08939 8 0H4C4 1.06686 3.99954 2.10321 4.04937 3.09988L8.04438 2.90012ZM6 2H21V-2H6V2ZM19 0C19 1.02301 18.9556 1.96279 18.9087 2.90012L22.9038 3.09988C22.9506 2.16221 23 1.13324 23 0H19ZM20.9062 5H25.875V1H20.9062V5ZM25.875 5H27V1H25.875V5ZM25 3V4.125H29V3H25ZM25 4.125C25 9.56876 22.2169 12.3962 19.4172 13.956L21.364 17.4503C25.1269 15.3538 29 11.3375 29 4.125H25ZM19.4548 13.9355C18.0505 14.679 16.5788 15.1443 15.5176 15.399L16.4511 19.2885C17.7337 18.9807 19.5432 18.4147 21.3264 17.4707L19.4548 13.9355ZM15.6556 15.371C15.4091 15.412 15.0331 15.4731 14.7493 15.5441L15.7194 19.4247C15.8106 19.4019 15.9971 19.3692 16.3132 19.3165L15.6556 15.371ZM14.3399 15.6955C14.2741 15.7284 14.3226 15.702 14.3915 15.6762C14.4689 15.6472 14.6724 15.5781 14.9531 15.5781V19.5781C15.3276 19.5781 15.6249 19.4857 15.796 19.4215C15.9586 19.3605 16.1009 19.2872 16.1288 19.2732L14.3399 15.6955ZM12.9531 17.5781V21H16.9531V17.5781H12.9531ZM14.9531 23H18.3281V19H14.9531V23ZM18.3281 23H19.4531V19H18.3281V23ZM17.4531 21V22.125H21.4531V21H17.4531ZM17.4531 22.125V22.875H21.4531V22.125H17.4531ZM17.4531 22.875V24H21.4531V22.875H17.4531ZM19.4531 22H18.375V26H19.4531V22ZM18.375 22H8.625V26H18.375V22ZM8.625 22H7.5V26H8.625V22ZM9.5 24V22.875H5.5V24H9.5ZM9.5 22.875V22.125H5.5V22.875H9.5ZM9.5 22.125V21H5.5V22.125H9.5ZM7.5 23H8.625V19H7.5V23ZM8.625 23H12V19H8.625V23ZM14 21V17.5781H10V21H14ZM12 15.5781C12.2807 15.5781 12.4843 15.6472 12.5616 15.6762C12.6305 15.702 12.679 15.7284 12.6132 15.6955L10.8243 19.2732C10.8522 19.2872 10.9945 19.3605 11.1571 19.4215C11.3282 19.4857 11.6255 19.5781 12 19.5781V15.5781ZM12.2038 15.5441C12.1244 15.5242 12.045 15.5068 11.9879 15.4944C11.9222 15.48 11.8752 15.47 11.8221 15.4579C11.7199 15.4347 11.6517 15.4163 11.6012 15.3995L10.3363 19.1942C10.567 19.2712 10.7801 19.3231 10.9357 19.3585C11.1483 19.4068 11.1582 19.4058 11.2337 19.4247L12.2038 15.5441ZM11.361 15.3357C10.3636 15.1362 8.92491 14.6853 7.53814 13.9104L5.58686 17.4021C7.38759 18.4084 9.23016 18.9888 10.5765 19.258L11.361 15.3357ZM7.51668 13.8985C4.75124 12.3973 2 9.58416 2 4.125H-2C-2 11.3221 1.81126 15.3527 5.60832 17.414L7.51668 13.8985ZM2 4.125V3H-2V4.125H2ZM0 5H1.125V1H0V5ZM1.125 5H6.04688V1H1.125V5ZM6.23438 3.25H2.25V7.25H6.23438V3.25ZM0.256631 5.41272C0.69748 10.8131 3.6907 13.8364 6.69437 15.4495L8.58688 11.9255C6.52805 10.8198 4.55252 8.87438 4.24337 5.08728L0.256631 5.41272ZM6.64835 15.424C7.03879 15.6471 7.48194 15.8691 7.88404 16.0414L9.45971 12.3648C9.20556 12.2559 8.89871 12.1029 8.6329 11.951L6.64835 15.424ZM10.4057 13.2062C9.50768 11.6444 8.62754 9.12668 8.22466 5.05316L4.24409 5.44684C4.68496 9.90457 5.67982 13.0118 6.93806 15.2001L10.4057 13.2062ZM18.9835 16.0758C19.5318 15.8702 19.9942 15.6015 20.3048 15.424L18.3202 11.951C17.9745 12.1485 17.7807 12.2548 17.579 12.3305L18.9835 16.0758ZM20.2588 15.4495C23.2624 13.8364 26.2556 10.8131 26.6965 5.41272L22.7098 5.08728C22.4006 8.87438 20.4251 10.8198 18.3662 11.9255L20.2588 15.4495ZM24.7031 3.25H20.7188V7.25H24.7031V3.25ZM18.7285 5.05316C18.3256 9.12668 17.4454 11.6444 16.5474 13.2062L20.0151 15.2001C21.2733 13.0118 22.2682 9.90457 22.709 5.44684L18.7285 5.05316Z" fill="white" mask="url(#path-1-outside-1_177_560)"/>
</g>
<defs>
<filter id="filter0_d_177_560" x="0" y="0" width="30" height="27" filterUnits="userSpaceOnUse" color-interpolation-filters="sRGB">
<feFlood flood-opacity="0" result="BackgroundImageFix"/>
<feColorMatrix in="SourceAlpha" type="matrix" values="0 0 0 0 0 0 0 0 0 0 0 0 0 0 0 0 0 0 127 0" result="hardAlpha"/>
<feOffset dx="3" dy="3"/>
<feComposite in2="hardAlpha" operator="out"/>
<feColorMatrix type="matrix" values="0 0 0 0 1 0 0 0 0 1 0 0 0 0 1 0 0 0 1 0"/>
<feBlend mode="normal" in2="BackgroundImageFix" result="effect1_dropShadow_177_560"/>
<feBlend mode="normal" in="SourceGraphic" in2="effect1_dropShadow_177_560" result="shape"/>
</filter>
</defs>
</svg>
