<svg width="14" height="11" viewBox="0 0 14 11" fill="none" xmlns="http://www.w3.org/2000/svg">
<path d="M7 0.25C8.875 0.25 10.3984 1.11719 11.5 2.14844C12.6016 3.15625 13.3281 4.375 13.6797 5.21875C13.75 5.40625 13.75 5.61719 13.6797 5.80469C13.3281 6.625 12.6016 7.84375 11.5 8.875C10.3984 9.90625 8.875 10.75 7 10.75C5.10156 10.75 3.57812 9.90625 2.47656 8.875C1.375 7.84375 0.648438 6.625 0.296875 5.80469C0.226562 5.61719 0.226562 5.40625 0.296875 5.21875C0.648438 4.375 1.375 3.15625 2.47656 2.14844C3.57812 1.11719 5.10156 0.25 7 0.25ZM3.625 5.5C3.625 6.71875 4.25781 7.82031 5.3125 8.42969C6.34375 9.03906 7.63281 9.03906 8.6875 8.42969C9.71875 7.82031 10.375 6.71875 10.375 5.5C10.375 4.30469 9.71875 3.20312 8.6875 2.59375C7.63281 1.98438 6.34375 1.98438 5.3125 2.59375C4.25781 3.20312 3.625 4.30469 3.625 5.5ZM7 4C7 3.83594 6.95312 3.69531 6.90625 3.53125C6.85938 3.41406 6.95312 3.25 7.09375 3.25C8.03125 3.29688 8.89844 3.95312 9.15625 4.9375C9.48438 6.13281 8.78125 7.35156 7.5625 7.67969C6.36719 8.00781 5.125 7.28125 4.82031 6.08594C4.77344 5.92188 4.75 5.75781 4.75 5.61719C4.72656 5.47656 4.89062 5.38281 5.00781 5.42969C5.17188 5.47656 5.3125 5.5 5.5 5.5C6.32031 5.5 7 4.84375 7 4Z" fill="#F9F9F9"/>
</svg>
