<svg width="14" height="16" viewBox="0 0 14 16" fill="none" xmlns="http://www.w3.org/2000/svg">
<path d="M13.125 6.49219C11.8945 6.51953 10.7461 6.13672 9.76172 5.42578V10.3203C9.76172 12.1797 8.61328 13.8203 6.86328 14.4766C5.14062 15.1328 3.17188 14.6406 1.96875 13.2461C0.738281 11.8242 0.519531 9.82812 1.39453 8.1875C2.26953 6.57422 4.07422 5.67188 5.93359 5.91797V8.37891C5.08594 8.10547 4.15625 8.40625 3.63672 9.11719C3.14453 9.85547 3.14453 10.8125 3.66406 11.5234C4.18359 12.2344 5.11328 12.5352 5.93359 12.2617C6.78125 11.9883 7.35547 11.1953 7.35547 10.3203V0.75H9.76172C9.76172 0.96875 9.76172 1.16016 9.81641 1.37891C9.98047 2.28125 10.5 3.07422 11.293 3.56641C11.8125 3.92188 12.4688 4.11328 13.125 4.11328V6.49219Z" fill="#F9F9F9"/>
</svg>
