<svg width="176" height="98" viewBox="0 0 176 98" fill="none" xmlns="http://www.w3.org/2000/svg">
<g clip-path="url(#clip0_72_282)">
<path d="M97.5912 1.06668L0.880371 23.8649L73.8897 98L101.121 4.70857L97.5912 1.06668Z" fill="#171717"/>
<path d="M101.121 4.70857L97.1901 0L95.6406 2.63448L97.4362 3.02868L101.121 4.70857Z" fill="#171717"/>
<path d="M69.2622 95.0821L73.8897 98L72.1215 91.0074L69.3221 92.2415L69.2622 95.0821Z" fill="#171717"/>
<path d="M66.3091 29.2949L58.8092 54.8306L40.2079 35.6357L66.3091 29.2949ZM72.6345 23.2942L31.79 33.2163L60.8977 63.2519L72.6345 23.2942Z" fill="#F9F9F9"/>
<path d="M82.318 14.109L64.1438 75.9825L19.0728 29.4739L82.318 14.109ZM86.5354 10.1076L13.4609 27.8598L65.537 81.5954L86.5354 10.1076Z" fill="#3EF274"/>
<path d="M95.0806 2.00066L68.5654 92.275L2.80595 24.4175L95.0806 2.00066ZM97.19 0L0 23.6111L69.262 95.0808L97.19 0Z" fill="#3EF274"/>
<path d="M94.2383 6.08957L69.7608 89.4267L9.05338 26.7854L94.2383 6.08957ZM94.6602 5.69022L8.49219 26.623L69.8988 89.9884L94.6602 5.69022Z" fill="#3EF274"/>
<path d="M81.9726 18.4504L66.1513 72.3174L26.9123 31.8276L81.9726 18.4504ZM82.3945 18.051L26.3511 31.6666L66.2906 72.8791L82.3945 18.051Z" fill="#3EF274"/>
<path d="M69.516 32.6418L63.3936 53.4844L48.2103 37.818L69.5147 32.6418M69.9378 32.2424L47.6504 37.6569L63.5343 54.0461L69.9391 32.2424H69.9378Z" fill="#F9F9F9"/>
<path d="M68.7096 81.4459C68.1458 81.0646 67.6628 80.5892 67.2773 80.0301L67.7253 79.663L69.082 81.0028L68.7109 81.4459H68.7096Z" fill="#171717"/>
<path d="M67.5184 79.8665L68.8751 81.2063C68.2697 80.7979 67.8309 80.3174 67.5184 79.8665ZM67.9311 79.4582L67.0366 80.1938C67.4429 80.7812 67.9507 81.2836 68.5457 81.6843L69.2879 80.7979L67.9311 79.4582Z" fill="#F9F9F9"/>
<path d="M72.6151 85.3158L72.9836 84.8714C73.0226 84.8972 73.063 84.9242 73.102 84.9487L73.5604 85.2295L72.856 85.5555L72.6138 85.3158H72.6151Z" fill="#171717"/>
<path d="M72.8219 85.1123C72.8649 85.1407 72.9066 85.169 72.9495 85.1948L72.9196 85.2089L72.8219 85.1123ZM73.1488 84.6331L72.4092 85.5207L72.5068 85.6173L72.7959 85.9033L73.167 85.732L73.1969 85.7178L74.1774 85.2643L73.2568 84.7027C73.2204 84.6807 73.1852 84.6563 73.1488 84.6331Z" fill="#F9F9F9"/>
<path d="M158.185 55.4748L158.43 54.6322H159.3L160.15 55.4748H158.185Z" fill="#171717"/>
<path d="M159.179 54.9208L159.445 55.1849H158.573L158.65 54.9208H159.179ZM159.421 54.3424H158.211L158.09 54.7611L158.013 55.0252L157.798 55.7633H160.857L159.86 54.7765L159.593 54.5124L159.422 54.3437L159.421 54.3424Z" fill="#F9F9F9"/>
<path d="M76.4792 86.4044C75.0443 86.4044 73.8034 86.0785 72.7917 85.437C72.7501 85.4112 72.7045 85.3816 72.6602 85.3519C72.099 84.9732 71.6199 84.5017 71.2358 83.9503L68.6681 81.4099L67.2996 80.0585L67.2684 80.0186C67.1069 79.7854 66.9637 79.5393 66.84 79.2894C65.9507 77.4704 65.9754 75.0111 66.9129 71.7712L73.0183 50.7082C73.9258 47.5765 75.2657 45.0721 77.0039 43.2608L76.0742 42.341L84.2759 13.3283L121.794 13.2291L121.992 14.5367L122.37 13.2291H171.516L175.67 17.3399L173.582 24.5438H172.07L171.868 25.2369L173.044 26.3989L169.789 37.9236H168.365L168.25 38.3217L169.353 39.4128L165.061 55.2068H159.883L163.72 59.0033L160.546 69.9522H154.768L159.535 74.6684L156.237 86.0502H80.0117L80.0338 85.7345C79.0078 86.1777 77.8151 86.4019 76.4805 86.4019L76.4792 86.4044Z" fill="#171717"/>
<path d="M171.396 13.5202L175.342 17.4249L173.363 24.2565H171.851L171.542 25.3219L172.717 26.4852L169.568 37.6363H168.144L167.922 38.408L169.027 39.5017L164.837 54.9208H158.65L158.573 55.1849H159.445L163.392 59.0896L160.326 69.6662H154.376L154.306 69.9071L155.259 70.8501L159.206 74.7548L156.016 85.7642H80.3228L80.3567 85.2618C79.2734 85.8286 77.9726 86.1146 76.4778 86.1146C74.983 86.1146 73.7878 85.7255 72.9479 85.1935C72.905 85.1677 72.8633 85.1394 72.8203 85.111C72.2149 84.7027 71.7761 84.2221 71.4636 83.7713L71.4597 83.7648L68.8725 81.205L67.5157 79.8653L67.5079 79.855C67.3373 79.6089 67.2045 79.3719 67.1017 79.1619C66.2449 77.4099 66.2761 75.0163 67.1928 71.8498L73.2982 50.7868C74.2292 47.5726 75.6119 45.0464 77.414 43.257L76.4023 42.256L84.4985 13.6168L121.544 13.5189L121.904 15.8958L122.593 13.5189H171.397M122.047 12.9405H121.542L84.4972 13.0397H84.0558L83.9373 13.4622L75.8411 42.1014L75.7487 42.4273L75.9908 42.667L76.6002 43.2699C74.9232 45.0966 73.6263 47.57 72.7396 50.6309L66.6342 71.6939C65.6759 75.0047 65.6577 77.5309 66.5782 79.417C66.7084 79.681 66.8595 79.9387 67.0287 80.1848L67.0405 80.2028L67.0535 80.2195L67.0613 80.2298L67.0821 80.2556L67.1056 80.2788L68.4623 81.6186L71.0105 84.1397C71.4128 84.7104 71.9115 85.1986 72.4922 85.5916H72.4948L72.5 85.5967C72.5456 85.6276 72.5925 85.6573 72.638 85.6856C73.6966 86.3555 74.9883 86.6956 76.4791 86.6956C77.6692 86.6956 78.7512 86.5217 79.7095 86.1777L79.6978 86.3452H156.456L156.577 85.9265L159.767 74.9171L159.862 74.5899L159.619 74.349L155.672 70.4443L155.473 70.2472H160.766L160.887 69.8285L163.953 59.2519L164.048 58.9247L163.805 58.6838L160.587 55.5005H165.284L165.4 55.0728L169.59 39.6537L169.677 39.3317L169.439 39.0959L168.577 38.2431L168.585 38.2186H170.01L170.13 37.7961L173.28 26.6449L173.372 26.319L173.131 26.0807L172.199 25.1583L172.292 24.8388H173.804L173.926 24.4201L175.905 17.5885L176 17.2613L175.756 17.0204L171.81 13.1157L171.639 12.9469H122.153L122.084 13.1853L122.047 12.9457V12.9405Z" fill="#F9F9F9"/>
<path d="M81.1575 55.2931C80.6861 56.9176 80.2161 58.5421 79.7447 60.1679C79.2604 61.84 78.776 63.5109 78.2916 65.183C77.8724 66.631 77.4518 68.0803 77.0325 69.5283C76.7552 70.4842 77.0469 69.3802 76.7695 70.336C76.7031 70.5679 76.6354 70.7985 76.569 71.0304C76.4219 71.5393 76.5651 72.9229 78.013 72.9229C79.4609 72.9229 80.3619 71.4736 80.5468 70.8346L81.7721 66.3231H80.1666L81.6171 61.3157H90.4724L85.1079 79.8562H78.6471L78.9023 76.1796H78.5468C77.737 77.6533 76.9023 78.6929 76.0417 79.2984C75.181 79.9052 74.0456 80.2079 72.6355 80.2079C70.8568 80.2079 69.6537 79.569 69.03 78.291C68.4051 77.0131 68.4767 75.0511 69.2436 72.4037L75.3477 51.3395C76.3307 47.9501 77.806 45.4856 79.7734 43.9462C81.7408 42.408 84.3332 41.6389 87.5493 41.6389C93.3734 41.6389 95.5596 44.1497 94.1039 49.1688L91.2263 59.0857H83.7785C84.1431 57.8258 84.7837 55.6281 85.1496 54.3681C85.4191 53.438 85.6887 52.4757 85.9634 51.5353C86.1053 51.0483 86.2498 50.5626 86.3996 50.0783C86.5207 49.6866 86.6808 48.9717 86.5597 48.553C86.5233 48.4254 86.4347 48.3185 86.3371 48.2296C85.8293 47.7684 85.1353 47.7993 84.466 47.8522C84.1431 47.8779 83.8176 47.9578 83.552 48.1394C83.1015 48.4486 82.9426 48.9639 82.7733 49.5308" fill="#F9F9F9"/>
<path d="M97.8016 79.8562L99.6505 72.9332H96.9331L94.7678 79.8562H86.5986L100.276 42.0112H114.409L105.992 79.8562H97.8029H97.8016ZM101.559 66.3218L105.326 49.5411H104.852L98.8484 66.3218H101.559Z" fill="#F9F9F9"/>
<path d="M124.799 65.5979L132.895 42.0112H144.227L133.258 79.8562H125.86L132.925 55.0174H132.49L123.261 79.8562H117.518L122.708 54.9388H122.273L114.919 79.8562H107.521L118.489 42.0112H129.782L124.325 65.5979H124.799Z" fill="#F9F9F9"/>
<path d="M146.267 72.8546H152.573L150.545 79.8562H135.778L146.746 42.0112H161.395L159.366 49.0129H153.179L150.809 57.1881H156.759L154.854 63.7595H148.904L146.269 72.8546H146.267Z" fill="#F9F9F9"/>
<path d="M102.885 18.3486L102.487 19.7296H110.332L109.513 22.5547H101.668L101.079 24.5825H110.437L109.618 27.4089H97.4033L100.849 15.5222H113.062L112.243 18.3486H102.885Z" fill="#3EF274"/>
<path d="M114.76 15.5235H119.8L121.172 24.5837H121.491L124.118 15.5235H126.974L123.529 27.4102H118.489L117.1 18.3499H116.797L114.171 27.4102H111.314L114.76 15.5235Z" fill="#3EF274"/>
<path d="M132.558 18.3486H127.854L128.673 15.5222H140.887L140.068 18.3486H135.413L132.787 27.4089H129.93L132.557 18.3486H132.558Z" fill="#3EF274"/>
<path d="M153.979 18.3486L151.437 15.5222H142.582L139.137 27.4089H141.994L142.814 24.5825H145.957L148.498 27.4089H151.354L148.812 24.5825H152.172L153.979 18.3486ZM150.136 21.7573H143.635L144.623 18.3486H151.124L150.136 21.7573Z" fill="#3EF274"/>
<path d="M98.333 18.3486L95.79 15.5222H86.936L83.4907 27.4089H86.3475L87.1678 24.5825H90.3109L92.8513 27.4089H95.708L93.1651 24.5825H96.5257L98.333 18.3486ZM94.4893 21.7573H87.9881L88.9763 18.3486H95.4775L94.4893 21.7573Z" fill="#3EF274"/>
<path d="M158.532 18.3486L158.134 19.7296H165.98L165.16 22.5547H157.315L156.727 24.5825H166.084L165.265 27.4089H153.051L156.496 15.5222H168.709L167.89 18.3486H158.532Z" fill="#3EF274"/>
<path d="M83.2933 29.0694H92.1043L94.0223 31.7297L91.5496 40.2592H80.0498L83.2933 29.0694ZM89.633 37.599L91.3335 31.7297H85.2112L83.5107 37.599H89.633Z" fill="#3EF274"/>
<path d="M98.3582 29.0694L95.6681 30.967L93.146 40.2592H95.8348L96.2957 38.6656L102.707 37.7291L101.973 40.2592H104.661L107.133 31.7297L105.215 29.0694H98.3556H98.3582ZM103.479 35.0688L97.0704 36.0054L98.31 31.7297H104.447L103.48 35.0688H103.479Z" fill="#3EF274"/>
<path d="M109.488 29.0694H114.234L115.527 37.599H115.828L118.3 29.0694H120.989L117.746 40.2592H113L111.691 31.7297H111.406L108.933 40.2592H106.245L109.488 29.0694Z" fill="#3EF274"/>
<path d="M122.585 29.0694H133.975L133.204 31.7297H124.503L124.041 33.3258H132.852L130.843 40.2592H119.343L120.114 37.599H128.925L129.393 35.9873H120.582L122.587 29.0694H122.585Z" fill="#3EF274"/>
<path d="M140.27 29.0694H142.959L140.486 37.599H149.298L148.527 40.2592H137.027L140.27 29.0694Z" fill="#3EF274"/>
<path d="M155.286 31.7297L154.91 33.0295H162.296L161.525 35.6898H154.139L153.585 37.599H162.395L161.624 40.2592H150.125L153.368 29.0694H164.866L164.096 31.7297H155.286Z" fill="#3EF274"/>
</g>
<defs>
<clipPath id="clip0_72_282">
<rect width="176" height="98" fill="white"/>
</clipPath>
</defs>
</svg>
