<svg width="212" height="870" viewBox="0 0 212 870" fill="none" xmlns="http://www.w3.org/2000/svg">
<g clip-path="url(#clip0_32_143825)">
<path d="M-32.5248 0.342812L129.554 406.691C131.875 412.506 132.02 418.964 129.962 424.879L1.81279 790.139L-7.2107 797.621L117.992 441.408C120.375 434.417 119.832 426.758 116.491 420.175L-45.0698 101.863C-50.3261 91.5048 -51.7149 79.6071 -48.9779 68.3173L-32.5208 0.343667L-32.5248 0.342812Z" fill="#EFEFEF"/>
<path d="M-70.6573 178.976L100.004 438.927C104.548 445.847 105.603 454.492 66.0063 565.25L-17.5944 803.62L-25.055 809.754L89.1686 472.648C90.705 468.163 89.7676 463.197 86.6989 459.586L-89.1503 252.463L-70.6573 178.976Z" fill="#EFEFEF"/>
<path d="M-46.9224 827.173L52.9506 515.67C54.5105 510.964 52.7014 505.795 48.5483 503.09L-111.364 399.04C-114.339 397.105 -115.802 393.532 -115.046 390.065L-102.905 334.392C-102.73 333.588 -101.756 333.266 -101.135 333.804L64.0454 477.408C70.2143 482.772 72.5555 491.319 69.9759 499.081L-36.1732 815.543L-46.9215 827.169L-46.9224 827.173Z" fill="#EFEFEF"/>
<path d="M-122.43 465.321L25.3675 529.866C29.6049 531.714 31.7691 536.459 30.3913 540.876L-59.6562 830.975L-72.0438 846.352L8.64888 564.501C9.60796 561.308 7.70889 557.965 4.4774 557.153L-126.885 524.185C-133.975 522.405 -138.465 515.427 -137.147 508.233L-130.037 469.377C-129.399 465.884 -125.673 463.903 -122.422 465.323L-122.43 465.321Z" fill="#EFEFEF"/>
</g>
<defs>
<clipPath id="clip0_32_143825">
<rect width="835" height="251" fill="white" transform="translate(211.14 53.4775) rotate(102.302)"/>
</clipPath>
</defs>
</svg>
