<svg width="613" height="459" viewBox="0 0 613 459" fill="none" xmlns="http://www.w3.org/2000/svg">
<g clip-path="url(#clip0_32_142090)">
<path d="M64.5469 457.007L351.288 126.601C355.391 121.871 361.063 118.781 367.263 117.897L750.613 64.235L761.401 68.8213L387.441 120.952C380.135 122.041 373.58 126.036 369.262 132.024L160.512 421.59C153.719 431.012 143.784 437.703 132.496 440.449L64.5459 457.003L64.5469 457.007Z" fill="#18181A"/>
<path d="M240.772 408.957L393.488 138.074C397.553 130.862 404.75 125.959 521.332 110.343L771.495 75.297L780.368 79.1128L428.422 132.236C423.732 132.927 419.749 136.038 417.948 140.421L314.556 391.683L240.772 408.957Z" fill="#18181A"/>
<path d="M805.876 90.5546L483.263 144.686C478.367 145.458 474.603 149.436 474.104 154.368L454.992 344.192C454.638 347.722 452.133 350.661 448.706 351.58L393.666 366.328C392.872 366.541 392.139 365.823 392.332 365.024L444.175 152.376C446.112 144.435 452.633 138.434 460.713 137.166L790.611 86.3371L805.872 90.5556L805.876 90.5546Z" fill="#18181A"/>
<path d="M518.966 323.624L508.53 162.685C508.229 158.072 511.452 153.972 516.009 153.171L815.094 100.126L834.44 104.081L546.975 161.655C543.698 162.267 541.598 165.488 542.359 168.732L573.316 300.583C574.986 307.699 570.845 314.89 563.847 317.018L526.06 328.523C522.663 329.557 519.193 327.156 518.964 323.616L518.966 323.624Z" fill="#18181A"/>
</g>
<defs>
<clipPath id="clip0_32_142090">
<rect width="835" height="251" fill="white" transform="translate(0 216.114) rotate(-15)"/>
</clipPath>
</defs>
</svg>
